PERFORMER "Tiefschwarz"
TITLE "Essential Mix (2006-05-28)"
FILE "tiefschwarz-essential_mix" MP3
  TRACK 01 AUDIO
    PERFORMER "Essential Mix"
    TITLE "Intro"
    INDEX 01 00:00:00
  TRACK 02 AUDIO
    PERFORMER "Damian Schwarz "
    TITLE "Ruidos y Frecuencias 1'"
    INDEX 01 00:50:00
  TRACK 03 AUDIO
    PERFORMER "Anthony Rother "
    TITLE "Sleep"
    INDEX 01 08:15:00
  TRACK 04 AUDIO
    PERFORMER "Hiem"
    TITLE "Zombie Party (Konrad Black Remix)"
    INDEX 01 15:40:00
  TRACK 05 AUDIO
    PERFORMER "Chikinki"
    TITLE "Assasinator 13 (Ruede Hagelstein Remix)"
    INDEX 01 22:30:00
  TRACK 06 AUDIO
    PERFORMER "John Tejada"
    TITLE "Forced Friction"
    INDEX 01 27:30:00
  TRACK 07 AUDIO
    PERFORMER "Ricardo Villalobos"
    TITLE "What You Say Is More Than I Can Say (Isolee Remix)"
    INDEX 01 33:00:00
  TRACK 08 AUDIO
    PERFORMER "F*ckaponydelic"
    TITLE "Switch The Light"
    INDEX 01 38:35:00
  TRACK 09 AUDIO
    PERFORMER "Pig & Dan"
    TITLE "4 Leaf Clover"
    INDEX 01 43:30:00
  TRACK 10 AUDIO
    PERFORMER "The Knife"
    TITLE "Pass This On (Booka Shade Remix)"
    INDEX 01 48:40:00
  TRACK 11 AUDIO
    PERFORMER "Ichundu"
    TITLE "Hey"
    INDEX 01 54:30:00
  TRACK 12 AUDIO
    PERFORMER "Depeche Mode"
    TITLE "John The Revelator (Tiefschwarz Remix)"
    INDEX 01 60:50:00
  TRACK 13 AUDIO
    PERFORMER "Riton"
    TITLE "Hammer Of Thor"
    INDEX 01 68:15:00
  TRACK 14 AUDIO
    PERFORMER "Shit Robot"
    TITLE "Wrong Galaxy"
    INDEX 01 73:00:00
  TRACK 15 AUDIO
    PERFORMER "Tobias"
    TITLE "Street Knowledge"
    INDEX 01 78:45:00
  TRACK 16 AUDIO
    PERFORMER "Madonna"
    TITLE "ID"
    INDEX 01 80:20:00
  TRACK 17 AUDIO
    PERFORMER "2000 And One"
    TITLE "Get Down"
    INDEX 01 87:50:00
  TRACK 18 AUDIO
    PERFORMER "Oxia"
    TITLE "Domino"
    INDEX 01 90:45:00
  TRACK 19 AUDIO
    PERFORMER "Superpitcher"
    TITLE "Enzian"
    INDEX 01 95:40:00
  TRACK 20 AUDIO
    PERFORMER "Tadeo"
    TITLE "Granate Granada"
    INDEX 01 99:30:00
  TRACK 21 AUDIO
    PERFORMER "Night On Earth"
    TITLE "Rondell"
    INDEX 01 102:00:00
  TRACK 22 AUDIO
    PERFORMER "Radio Slave"
    TITLE "My Beep (Roman Flugel Remix)"
    INDEX 01 106:30:00
  TRACK 23 AUDIO
    PERFORMER "Layo & Bushwacka!"
    TITLE "Life 2 Live (Loco Dice Remix)"
    INDEX 01 112:30:00
  TRACK 24 AUDIO
    PERFORMER "Essential Mix"
    TITLE "Outro"
    INDEX 01 118:20:00